<svg xmlns="http://www.w3.org/2000/svg" width="19.172" height="27.694" viewBox="0 0 19.172 27.694">
  <path id="address-icon" d="M-1023.088-2991.079c0-1.111,1.455-2.07,3.557-2.512,1.211,1.316,2.1,2.138,2.158,2.191l.459.422.459-.422c.058-.053.948-.875,2.158-2.191,2.1.442,3.557,1.4,3.557,2.512,0,1.531-2.764,2.773-6.174,2.773S-1023.088-2989.548-1023.088-2991.079Zm-2.912-15.884c0-4.439,4.068-8.037,9.086-8.037s9.086,3.6,9.086,8.037c0,6.588-9.086,14.948-9.086,14.948S-1026-3000.375-1026-3006.963Zm4.729,0a4.129,4.129,0,0,0,4.357,3.854,4.129,4.129,0,0,0,4.358-3.854,4.129,4.129,0,0,0-4.358-3.854A4.129,4.129,0,0,0-1021.271-3006.963Z" transform="translate(1026.5 3015.5)" fill="#fff" stroke="rgba(0,0,0,0)" stroke-miterlimit="10" stroke-width="1"/>
</svg>
