<svg xmlns="http://www.w3.org/2000/svg" width="23.973" height="17.98" viewBox="0 0 23.973 17.98">
  <path id="email-icon" d="M.734,1.391,8.907,8.653a.452.452,0,0,1,0,.673L.734,16.588A.442.442,0,0,1,0,16.252V1.728a.442.442,0,0,1,.734-.336M11.695,9.5,1.882.784A.448.448,0,0,1,2.174,0H21.8a.449.449,0,0,1,.293.784L12.279,9.5a.439.439,0,0,1-.584,0m-1.786.559a.439.439,0,0,1,.585,0l1.094.973a.6.6,0,0,0,.8,0l1.095-.973a.439.439,0,0,1,.584,0L22.091,17.2a.449.449,0,0,1-.292.785H2.173a.449.449,0,0,1-.292-.785Zm5.157-1.409,8.172-7.262a.442.442,0,0,1,.735.336V16.253a.443.443,0,0,1-.735.336L15.066,9.326a.452.452,0,0,1,0-.673" fill="#fff"/>
</svg>
