<svg xmlns="http://www.w3.org/2000/svg" width="80.993" height="80.998" viewBox="0 0 80.993 80.998">
  <path id="Facilities" d="M-5591.879-910l-6.571-.011a2.088,2.088,0,0,1-2.079-1.8l-.332-2.555a7.07,7.07,0,0,0-1.292-.5l-2.076,1.582a2.088,2.088,0,0,1-2.708-.258l-4.69-4.69a2.117,2.117,0,0,1-.2-2.84l1.539-1.977-.5-1.276-2.409-.294a2.136,2.136,0,0,1-1.967-2.108v-6.727a2.093,2.093,0,0,1,1.81-2.082l2.563-.331.509-1.265-1.547-2a2.108,2.108,0,0,1,.2-2.823l4.684-4.683a2.138,2.138,0,0,1,2.922-.139l1.895,1.484,1.268-.508.331-2.569a2.1,2.1,0,0,1,2.082-1.807h6.733a2.1,2.1,0,0,1,2.078,1.839l.325,2.532,1.27.509,1.979-1.54a2.122,2.122,0,0,1,2.84.2l4.686,4.685a2.152,2.152,0,0,1,.135,2.909l-1.461,1.869a8.584,8.584,0,0,0,.5,1.318l2.151.236a2.59,2.59,0,0,1,2.206,1.57v7.77a2.4,2.4,0,0,1-2.089,1.683l-2.283.263-.511,1.29,1.422,1.794a2.187,2.187,0,0,1-.078,3.012l-4.685,4.685a2.116,2.116,0,0,1-2.81.206l-1.974-1.529a9.014,9.014,0,0,0-1.3.5l-.294,2.4a2.165,2.165,0,0,1-2.258,1.971Zm-11.82-20.088a8.61,8.61,0,0,0,8.61,8.61,8.61,8.61,0,0,0,8.61-8.61,8.61,8.61,0,0,0-8.61-8.612A8.61,8.61,0,0,0-5603.7-930.09Zm-38.75,5.017-.006-62.085a2.657,2.657,0,0,1,1.831-2.843h41.245a2.628,2.628,0,0,1,1.783,2.685l0,32.446a7.072,7.072,0,0,0-6.479,3,8.687,8.687,0,0,0-3.472.207,2.374,2.374,0,0,1-.085-.566,2.368,2.368,0,0,0-2.281-2.613,2.359,2.359,0,0,0-2.418,2.5l.007,2.208a3.3,3.3,0,0,0,.551,1.693l-3.538,3.615a6.6,6.6,0,0,0-1.544,5.725,6.939,6.939,0,0,0-3,5.82v6.4l.167,1.817Zm12.364-29.762a2.328,2.328,0,0,0-2.326,2.488v2.187a2.326,2.326,0,0,0,2.326,2.477,2.318,2.318,0,0,0,2.367-2.42l0-2.363a2.311,2.311,0,0,0-2.334-2.369Zm7.763,2.031a24.249,24.249,0,0,0,0,3.1,2.258,2.258,0,0,0,2.521,2.01,2.346,2.346,0,0,0,2.132-2.529l0-2.126a2.333,2.333,0,0,0-2.113-2.475c-.075-.007-.15-.01-.225-.01A2.237,2.237,0,0,0-5622.323-952.8Zm9.994-12.2.014,2.5a2.284,2.284,0,0,0,2.369,2.268,2.334,2.334,0,0,0,2.311-2.486l.006-2.125a2.349,2.349,0,0,0-2.295-2.54h-.068A2.314,2.314,0,0,0-5612.329-965Zm-7.756-2.384a2.35,2.35,0,0,0-2.295,2.539l.028,2.35a2.28,2.28,0,0,0,2.4,2.261,2.331,2.331,0,0,0,2.278-2.486l-.007-2.279a2.308,2.308,0,0,0-2.335-2.385Zm-12.259,1.926a19.059,19.059,0,0,0-.006,3.271,2.244,2.244,0,0,0,2.484,1.943,2.328,2.328,0,0,0,2.151-2.491l-.006-2.251a2.3,2.3,0,0,0-2.065-2.383,2.53,2.53,0,0,0-.255-.013A2.211,2.211,0,0,0-5632.344-965.46Zm22.282-14.477a2.324,2.324,0,0,0-2.27,2.431l.006,2.347a2.308,2.308,0,0,0,2.4,2.372,2.365,2.365,0,0,0,2.3-2.593l-.011-2.125a2.322,2.322,0,0,0-2.352-2.434Zm-22.316,2.113c-.041.992-.044,2,.011,2.98a2.261,2.261,0,0,0,2.575,2.042,2.319,2.319,0,0,0,2.075-2.458v-2.23a2.323,2.323,0,0,0-2.251-2.447l-.094,0A2.259,2.259,0,0,0-5632.378-977.824Zm10.038.009c-.038.984-.041,1.981.013,2.962a2.257,2.257,0,0,0,2.541,2.055,2.311,2.311,0,0,0,2.109-2.427v-2.282a2.314,2.314,0,0,0-2.288-2.43h-.063A2.263,2.263,0,0,0-5622.34-977.816ZM-5655-927.526v-32.459a2.377,2.377,0,0,1,2.5-2.411l5.36.027v37.247l-5.5.05h-.024A2.347,2.347,0,0,1-5655-927.526Zm55.984-2.566a3.928,3.928,0,0,1,3.927-3.927,3.926,3.926,0,0,1,3.927,3.927,3.925,3.925,0,0,1-3.927,3.927A3.927,3.927,0,0,1-5599.017-930.092Zm12.928-21.776a7.037,7.037,0,0,0-6.822-2.949l0-22.529a2.14,2.14,0,0,1,2.092.518l7.57,7.563a2.546,2.546,0,0,1,.718,1.771l-.007,15.857A8.437,8.437,0,0,0-5586.089-951.868Z" transform="translate(5655.5 990.501)" fill="#e60019" stroke="rgba(0,0,0,0)" stroke-miterlimit="10" stroke-width="1"/>
</svg>
