<svg xmlns="http://www.w3.org/2000/svg" width="79.998" height="79.998" viewBox="0 0 79.998 79.998">
  <path id="Faculty" d="M-5165-910v-2.857h80V-910Zm48.568-19.925a8.565,8.565,0,0,0-8.478-8.636,8.575,8.575,0,0,0-8.661,8.38l0,14.47-8.569-.009,0-58.562,17.15-7.142,17.138,7.135,0,58.57-8.571.009ZM-5123.574-950h4.286v-8.571h-4.286Zm-7.144,0h4.287v-8.571h-4.287Zm1.437-20a4.277,4.277,0,0,0,4.276,4.276,4.278,4.278,0,0,0,4.276-4.276,4.277,4.277,0,0,0-4.276-4.276A4.276,4.276,0,0,0-5129.281-970ZM-5105-915.717V-950h20v34.284Zm11.428-7.142h4.286v-8.571h-4.286Zm-7.144,0h4.287v-8.571h-4.287Zm7.144-14.285h4.286v-8.571h-4.286Zm-7.144,0h4.287v-8.571h-4.287ZM-5165-915.717V-950h20v34.284Zm11.428-7.142h4.286v-8.571h-4.286Zm-7.142,0h4.287v-8.571h-4.287Zm7.142-14.285h4.286v-8.571h-4.286Zm-7.142,0h4.287v-8.571h-4.287Zm-4.276-19.5,19.983-10.074.014,13.854-20,0Zm60-10.078,19.944,10.043.045,3.815-20,0Zm-40.01-14.942L-5125-990l19.973,8.317,0,5.952-19.948-8.312-20.015,8.317Z" transform="translate(5165 990.001)" fill="#e60019"/>
</svg>
