<svg xmlns="http://www.w3.org/2000/svg" width="67.001" height="80.998" viewBox="0 0 67.001 80.998">
  <path id="History" d="M-4613.963-910l-55.552-.011a4.859,4.859,0,0,0,3.949-4.681,3.127,3.127,0,0,1,3.165-3.126h50.244a3.115,3.115,0,0,1,3.155,3.264,4.713,4.713,0,0,1-4.958,4.552Zm-58.888-4.726a2.483,2.483,0,0,1-2.147-2.5l0-67.743a3.111,3.111,0,0,1,1.5-2.737,2.973,2.973,0,0,1,3.146-.066,5.464,5.464,0,0,0,6.766-.607,7.232,7.232,0,0,1,3.046-1.624h1.729a7.056,7.056,0,0,1,2.989,1.577,5.446,5.446,0,0,0,7.589.022,7.591,7.591,0,0,1,2.937-1.6h1.887a7.544,7.544,0,0,1,2.945,1.6,5.43,5.43,0,0,0,7.524.021,7.223,7.223,0,0,1,3.047-1.624h1.727a7.04,7.04,0,0,1,2.991,1.578,5.478,5.478,0,0,0,6.824.651,2.984,2.984,0,0,1,3.245.133,3.113,3.113,0,0,1,1.4,2.67l0,59.311a3.112,3.112,0,0,1-3.163,3.148l-45.532.006a7.922,7.922,0,0,0-7.688,5.993,2.473,2.473,0,0,1-2.4,1.809A2.455,2.455,0,0,1-4672.851-914.727Zm8.075-25.047a3.121,3.121,0,0,0,3.142,3.049l18.932-.008a3.1,3.1,0,0,0,3.055-3.184,3.117,3.117,0,0,0-3.14-3.054h-18.849A3.119,3.119,0,0,0-4664.776-939.774Zm0-14.062a3.119,3.119,0,0,0,3.151,3.05l34.625,0a3.094,3.094,0,0,0,3.065-3.188,3.109,3.109,0,0,0-3.147-3.055h-34.543A3.117,3.117,0,0,0-4664.775-953.836Zm0-14.062a3.119,3.119,0,0,0,3.151,3.052l34.625-.006a3.093,3.093,0,0,0,3.065-3.187,3.109,3.109,0,0,0-3.147-3.056h-34.543A3.117,3.117,0,0,0-4664.775-967.9Z" transform="translate(4675.5 990.5)" fill="#e60019" stroke="rgba(0,0,0,0)" stroke-miterlimit="10" stroke-width="1"/>
</svg>
